<?xml version="1.0" encoding="utf-8"?>
<!-- Generator: Adobe Illustrator 24.0.2, SVG Export Plug-In . SVG Version: 6.00 Build 0)  -->
<svg version="1.1" id="Capa_1" xmlns="http://www.w3.org/2000/svg" xmlns:xlink="http://www.w3.org/1999/xlink" x="0px" y="0px"
	 viewBox="0 0 50.45 50" style="enable-background:new 0 0 50.45 50;" xml:space="preserve">
<style type="text/css">
	.st0{fill:#F2A0C0;}
	.st1{fill:#FFFFFF;}
</style>
<g id="XMLID_32_">
	<path id="XMLID_34_" class="st0" d="M25.23,48.98L25.23,48.98C11.98,48.98,1.24,38.25,1.24,25v0c0-13.25,10.74-23.98,23.98-23.98h0
		c13.25,0,23.98,10.74,23.98,23.98v0C49.21,38.25,38.47,48.98,25.23,48.98z"/>
	<path id="XMLID_33_" class="st1" d="M21.57,39.5h5.84V24.88h4.07l0.43-4.9h-4.51c0,0,0-1.83,0-2.79c0-1.15,0.23-1.61,1.35-1.61
		c0.9,0,3.16,0,3.16,0V10.5c0,0-3.33,0-4.04,0c-4.34,0-6.3,1.91-6.3,5.58c0,3.19,0,3.9,0,3.9h-3.04v4.96h3.04V39.5z"/>
</g>
</svg>
